<svg width="17" height="16" viewBox="0 0 17 16" fill="none" xmlns="http://www.w3.org/2000/svg">
<path d="M8.83139 4.59733C8.19939 4.59733 7.22139 3.87867 6.19139 3.904C4.83139 3.922 3.58472 4.69267 2.88405 5.91333C1.47272 8.36333 2.52005 11.982 3.89672 13.9733C4.57205 14.9427 5.36872 16.0333 6.42472 15.9993C7.43805 15.956 7.81805 15.3413 9.04805 15.3413C10.2687 15.3413 10.6147 15.9993 11.6881 15.9733C12.7794 15.956 13.4721 14.9867 14.1387 14.008C14.9094 12.8827 15.2294 11.7913 15.2467 11.7313C15.2207 11.7227 13.1254 10.9173 13.1001 8.49333C13.0827 6.46667 14.7534 5.49733 14.8314 5.454C13.8787 4.06067 12.4161 3.90467 11.9047 3.87C10.5714 3.766 9.45472 4.59733 8.83139 4.59733ZM11.0834 2.55333C11.6454 1.87867 12.0167 0.935333 11.9134 0C11.1087 0.0346667 10.1387 0.536667 9.55872 1.212C9.03872 1.80933 8.58939 2.77067 8.71005 3.688C9.60205 3.75733 10.5201 3.22933 11.0827 2.554" fill="#09090B"/>
</svg>
