<svg width="17" height="16" viewBox="0 0 17 16" fill="none" xmlns="http://www.w3.org/2000/svg">
<path d="M15.4599 8.1665C15.4599 7.6465 15.4133 7.1465 15.3266 6.6665H8.41992V9.5065H12.3666C12.1933 10.4198 11.6733 11.1932 10.8933 11.7132V13.5598H13.2733C14.6599 12.2798 15.4599 10.3998 15.4599 8.1665Z" fill="#4285F4"/>
<path d="M8.41996 15.3332C10.4 15.3332 12.06 14.6799 13.2733 13.5599L10.8933 11.7132C10.24 12.1532 9.40662 12.4199 8.41996 12.4199C6.51329 12.4199 4.89329 11.1332 4.31329 9.3999H1.87329V11.2932C3.07996 13.6866 5.55329 15.3332 8.41996 15.3332Z" fill="#34A853"/>
<path d="M4.31334 9.39338C4.16667 8.95338 4.08 8.48671 4.08 8.00005C4.08 7.51338 4.16667 7.04671 4.31334 6.60671V4.71338H1.87334C1.37334 5.70005 1.08667 6.81338 1.08667 8.00005C1.08667 9.18671 1.37334 10.3 1.87334 11.2867L3.77334 9.80671L4.31334 9.39338Z" fill="#FBBC05"/>
<path d="M8.41996 3.5865C9.49996 3.5865 10.46 3.95984 11.2266 4.67984L13.3266 2.57984C12.0533 1.39317 10.4 0.666504 8.41996 0.666504C5.55329 0.666504 3.07996 2.31317 1.87329 4.71317L4.31329 6.6065C4.89329 4.87317 6.51329 3.5865 8.41996 3.5865Z" fill="#EA4335"/>
</svg>
